<?xml version="1.0" standalone="no"?>
<!DOCTYPE svg PUBLIC "-//W3C//DTD SVG 20010904//EN"
 "http://www.w3.org/TR/2001/REC-SVG-20010904/DTD/svg10.dtd">
<svg version="1.0" xmlns="http://www.w3.org/2000/svg"
 width="512.000000pt" height="512.000000pt" viewBox="0 0 512.000000 512.000000"
 preserveAspectRatio="xMidYMid meet">

<g transform="translate(0.000000,512.000000) scale(0.100000,-0.100000)"
fill="#000000" stroke="none">
<path d="M1780 5104 c-177 -38 -348 -171 -429 -334 -55 -112 -71 -193 -71
-362 l0 -138 -431 0 c-283 0 -445 -4 -474 -11 -27 -7 -63 -28 -90 -51 -112
-98 -88 -275 46 -342 49 -24 62 -26 185 -26 l132 0 6 -62 c3 -35 44 -763 91
-1618 49 -903 91 -1586 99 -1630 20 -107 50 -179 109 -262 92 -127 234 -221
386 -253 106 -22 2339 -22 2446 0 240 50 443 255 490 495 9 47 46 656 100
1640 47 861 88 1593 91 1628 l6 62 132 0 c122 0 136 2 185 26 127 64 155 219
59 328 -65 75 -73 76 -575 76 l-433 0 0 138 c0 170 -17 251 -72 362 -84 167
-252 297 -433 335 -100 21 -1457 21 -1555 -1z m1533 -444 c21 -14 50 -43 65
-64 26 -38 27 -45 30 -183 l3 -143 -851 0 -851 0 3 144 c3 142 4 145 33 187
17 23 50 53 74 66 l45 23 706 -2 706 -3 37 -25z m-1493 -1708 c31 -19 52 -43
72 -81 l28 -53 0 -675 c0 -506 -3 -686 -12 -717 -17 -57 -82 -119 -141 -135
-95 -27 -195 13 -244 97 l-28 47 -3 674 c-3 772 -5 750 73 819 77 68 168 76
255 24z m838 9 c47 -24 77 -56 97 -103 13 -33 15 -127 15 -725 0 -648 -2 -690
-19 -728 -76 -164 -298 -166 -382 -3 -18 36 -19 68 -19 728 0 601 2 695 15
728 48 113 181 160 293 103z m810 17 c69 -17 136 -88 152 -159 8 -39 10 -237
8 -719 l-3 -665 -28 -47 c-49 -84 -149 -124 -244 -97 -59 16 -127 81 -142 135
-7 26 -11 266 -11 715 l0 675 26 53 c28 56 79 98 136 111 47 11 54 11 106 -2z"/>
</g>
</svg>
