<?xml version="1.0" standalone="no"?>
<!DOCTYPE svg PUBLIC "-//W3C//DTD SVG 20010904//EN"
 "http://www.w3.org/TR/2001/REC-SVG-20010904/DTD/svg10.dtd">
<svg version="1.0" xmlns="http://www.w3.org/2000/svg"
 width="512.000000pt" height="512.000000pt" viewBox="0 0 512.000000 512.000000"
 preserveAspectRatio="xMidYMid meet">

<g transform="translate(0.000000,512.000000) scale(0.100000,-0.100000)"
fill="#000000" stroke="none">
<path d="M1623 3360 c-65 -23 -96 -44 -155 -108 -84 -89 -121 -194 -121 -337
0 -138 40 -248 125 -341 162 -177 426 -153 563 51 56 84 77 152 83 271 5 110
-9 177 -53 264 -89 174 -278 260 -442 200z"/>
<path d="M3286 3364 c-128 -41 -227 -154 -271 -311 -22 -78 -17 -232 11 -313
41 -120 144 -231 249 -267 205 -70 417 65 486 308 7 24 13 85 13 134 0 195
-91 358 -244 432 -69 33 -172 40 -244 17z"/>
<path d="M1024 2262 c-17 -11 -37 -34 -44 -52 -12 -28 -10 -41 10 -113 13 -45
36 -113 52 -151 212 -519 637 -874 1195 -998 85 -19 128 -22 323 -22 195 0
238 3 323 22 445 99 807 345 1044 709 92 141 196 379 219 499 12 66 -54 133
-119 120 -51 -10 -74 -42 -107 -145 -161 -502 -568 -869 -1085 -977 -125 -26
-423 -27 -545 -1 -448 95 -812 374 -1005 772 -30 61 -68 153 -85 206 -18 58
-40 105 -54 118 -33 31 -84 36 -122 13z"/>
</g>
</svg>
