<?xml version="1.0" standalone="no"?>
<!DOCTYPE svg PUBLIC "-//W3C//DTD SVG 20010904//EN"
 "http://www.w3.org/TR/2001/REC-SVG-20010904/DTD/svg10.dtd">
<svg version="1.0" xmlns="http://www.w3.org/2000/svg"
 width="512.000000pt" height="512.000000pt" viewBox="0 0 512.000000 512.000000"
 preserveAspectRatio="xMidYMid meet">

<g transform="translate(0.000000,512.000000) scale(0.100000,-0.100000)"
fill="#000000" stroke="none">
<path d="M1652 3239 c-103 -20 -215 -94 -289 -190 -79 -103 -141 -257 -129
-322 14 -74 98 -126 170 -106 53 15 83 45 102 102 53 164 149 260 240 242 71
-13 166 -127 194 -234 15 -55 67 -110 107 -113 85 -4 128 17 155 79 19 44 19
47 3 112 -52 210 -232 397 -414 431 -61 11 -78 11 -139 -1z"/>
<path d="M3320 3240 c-174 -36 -352 -225 -405 -429 -15 -60 -15 -68 0 -107 49
-128 229 -110 265 26 28 108 123 222 194 235 91 18 187 -78 240 -242 19 -57
49 -87 102 -102 72 -20 156 32 170 106 13 69 -55 232 -141 335 -113 138 -280
207 -425 178z"/>
<path d="M1180 1952 c-19 -9 -42 -32 -51 -50 -15 -29 -15 -40 -2 -110 108
-577 619 -1022 1267 -1103 133 -16 390 -6 520 20 540 110 970 488 1111 976 37
128 42 195 19 230 -35 54 -61 57 -265 30 -651 -86 -1357 -100 -2024 -40 -150
14 -424 46 -510 60 -18 3 -44 -2 -65 -13z m365 -226 c77 -8 171 -18 208 -22
l69 -7 -6 -31 c-3 -17 -13 -87 -21 -156 -9 -68 -17 -125 -18 -126 -3 -3 -249
25 -251 28 -1 2 -13 19 -27 38 -50 68 -149 267 -149 298 0 2 12 1 28 -2 15 -3
90 -12 167 -20z m2271 -3 c-9 -42 -113 -244 -144 -281 -27 -33 -31 -34 -148
-47 -65 -7 -120 -12 -122 -10 -4 4 -44 307 -40 310 2 2 75 10 163 20 132 13
237 26 289 34 4 0 5 -11 2 -26z m-1609 -49 l93 -6 -6 -151 c-4 -84 -9 -155
-13 -159 -6 -7 -392 10 -399 17 -4 4 27 283 34 303 4 14 0 14 291 -4z m1058
-16 c15 -91 33 -274 27 -280 -6 -6 -393 -31 -398 -25 -1 1 -5 73 -9 160 l-7
157 34 1 c18 1 85 5 148 9 216 13 198 14 205 -22z m-482 -70 c4 -46 7 -118 7
-160 l0 -78 -200 0 -200 0 0 123 c0 67 3 139 6 160 l7 37 187 0 187 0 6 -82z
m-1054 -304 c28 -6 31 -10 31 -45 0 -21 -5 -41 -10 -44 -6 -3 -34 16 -63 44
l-52 51 31 0 c17 0 46 -3 63 -6z m1762 -44 c-30 -28 -58 -50 -63 -50 -4 0 -8
13 -8 29 0 16 -3 36 -6 44 -6 16 19 22 96 25 l35 1 -54 -49z m-1333 14 l122
-7 -6 -151 c-4 -83 -8 -153 -10 -154 -7 -9 -190 55 -279 98 -145 70 -138 61
-129 154 l7 79 86 -6 c47 -4 141 -9 209 -13z m1156 -6 c3 -13 8 -48 11 -78 l6
-55 -65 -38 c-76 -44 -215 -101 -294 -122 -31 -8 -57 -13 -58 -12 -1 1 -5 71
-9 155 l-7 152 59 1 c32 1 105 5 163 9 192 13 189 13 194 -12z m-512 -163 c4
-87 6 -161 3 -163 -19 -20 -316 -24 -409 -5 l-28 5 7 157 c4 86 8 158 10 161
2 3 95 5 207 4 l203 -1 7 -158z"/>
</g>
</svg>
