<?xml version="1.0" standalone="no"?>
<!DOCTYPE svg PUBLIC "-//W3C//DTD SVG 20010904//EN"
 "http://www.w3.org/TR/2001/REC-SVG-20010904/DTD/svg10.dtd">
<svg version="1.0" xmlns="http://www.w3.org/2000/svg"
 width="512.000000pt" height="512.000000pt" viewBox="0 0 512.000000 512.000000"
 preserveAspectRatio="xMidYMid meet">

<g transform="translate(0.000000,512.000000) scale(0.100000,-0.100000)"
fill="#000000" stroke="none">
<path d="M2130 3262 c-14 -1 -56 -27 -92 -56 -208 -165 -449 -165 -656 1 -58
45 -73 53 -110 53 -61 0 -102 -41 -102 -101 0 -39 5 -48 53 -94 68 -66 175
-130 274 -163 69 -23 93 -26 213 -26 119 0 145 3 215 27 102 34 193 87 267
157 52 50 58 60 58 96 0 68 -53 115 -120 106z"/>
<path d="M3825 3262 c-12 -1 -50 -27 -87 -56 -166 -132 -358 -159 -535 -77
-36 17 -86 48 -112 70 -61 50 -83 61 -126 61 -54 0 -95 -44 -95 -101 0 -40 5
-48 58 -99 74 -70 165 -123 267 -157 70 -24 96 -27 215 -27 120 0 144 3 213
26 99 33 206 97 274 163 47 46 53 56 53 93 0 66 -59 115 -125 104z"/>
<path d="M2456 1875 c-388 -96 -509 -146 -641 -266 -148 -136 -278 -380 -259
-489 16 -92 57 -105 176 -56 249 103 424 113 878 51 391 -53 543 -54 735 -5
94 24 147 50 194 93 42 40 75 110 67 143 -7 26 -147 165 -288 287 -233 199
-420 288 -603 286 -59 0 -126 -12 -259 -44z m463 -493 c78 -58 11 -133 -79
-87 -27 14 -60 51 -60 67 0 5 10 18 21 29 25 25 78 21 118 -9z"/>
</g>
</svg>
