<?xml version="1.0" standalone="no"?>
<!DOCTYPE svg PUBLIC "-//W3C//DTD SVG 20010904//EN"
 "http://www.w3.org/TR/2001/REC-SVG-20010904/DTD/svg10.dtd">
<svg version="1.0" xmlns="http://www.w3.org/2000/svg"
 width="512.000000pt" height="512.000000pt" viewBox="0 0 512.000000 512.000000"
 preserveAspectRatio="xMidYMid meet">

<g transform="translate(0.000000,512.000000) scale(0.100000,-0.100000)"
fill="#000000" stroke="none">
<path d="M1655 3416 c-317 -78 -392 -500 -121 -680 254 -169 588 9 587 314 0
87 -17 145 -66 215 -56 82 -134 133 -233 154 -65 14 -102 13 -167 -3z"/>
<path d="M3293 3420 c-170 -34 -295 -191 -295 -370 0 -172 107 -315 271 -364
192 -57 403 54 467 246 26 78 16 208 -21 281 -80 159 -247 241 -422 207z"/>
<path d="M1459 1771 c-35 -34 -39 -44 -39 -87 0 -31 7 -61 20 -81 40 -67 -29
-63 1120 -63 1149 0 1080 -4 1120 63 13 20 20 50 20 80 0 40 -5 53 -34 85
l-34 37 -1067 3 -1067 2 -39 -39z"/>
</g>
</svg>
