<?xml version="1.0" standalone="no"?>
<!DOCTYPE svg PUBLIC "-//W3C//DTD SVG 20010904//EN"
 "http://www.w3.org/TR/2001/REC-SVG-20010904/DTD/svg10.dtd">
<svg version="1.0" xmlns="http://www.w3.org/2000/svg"
 width="512.000000pt" height="512.000000pt" viewBox="0 0 512.000000 512.000000"
 preserveAspectRatio="xMidYMid meet">

<g transform="translate(0.000000,512.000000) scale(0.100000,-0.100000)"
fill="#000000" stroke="none">
<path d="M2470 5099 c-68 -30 -1712 -1673 -1746 -1744 -44 -92 -25 -193 47
-262 72 -68 -67 -63 1789 -63 1856 0 1717 -5 1789 63 72 69 91 170 47 262 -19
40 -190 216 -862 887 -892 890 -878 878 -974 878 -25 0 -65 -10 -90 -21z"/>
<path d="M835 2071 c-82 -38 -135 -120 -135 -208 0 -102 -15 -86 886 -985 892
-890 878 -878 974 -878 96 0 82 -12 974 878 672 671 843 847 862 887 44 92 25
193 -47 262 -72 68 67 63 -1791 63 -1618 0 -1685 -1 -1723 -19z"/>
</g>
</svg>
